# Blender 4.2.0
# www.blender.org
mtllib hemisphere.mtl
o Sphere
v 0.000000 1.765413 -0.351163
v 0.000000 1.272792 -1.272792
v 0.000000 0.688830 -1.662983
v 0.000000 0.351163 -1.765413
v 0.134384 1.765413 -0.324432
v 0.263604 1.662983 -0.636396
v 0.382694 1.496645 -0.923904
v 0.487076 1.272792 -1.175907
v 0.572741 1.000026 -1.382720
v 0.636396 0.688830 -1.536396
v 0.675595 0.351163 -1.631029
v 0.688830 0.000000 -1.662983
v 0.248309 1.765413 -0.248309
v 0.487077 1.662983 -0.487076
v 0.707126 1.496645 -0.707125
v 0.900000 1.272792 -0.900000
v 1.058288 1.000026 -1.058288
v 1.175907 0.688830 -1.175906
v 1.248336 0.351163 -1.248336
v 1.272792 0.000000 -1.272792
v 0.324432 1.765413 -0.134384
v 0.636396 1.662983 -0.263604
v 0.923904 1.496645 -0.382693
v 1.175907 1.272792 -0.487076
v 1.382720 1.000026 -0.572741
v 1.536396 0.688830 -0.636396
v 1.631029 0.351163 -0.675594
v 1.662983 0.000000 -0.688830
v 0.351163 1.765413 0.000000
v 0.688830 1.662983 0.000000
v 1.000026 1.496645 0.000000
v 1.272792 1.272792 0.000000
v 1.496645 1.000026 0.000000
v 1.662983 0.688830 0.000000
v 1.765413 0.351163 0.000000
v 1.800000 0.000000 0.000000
v 0.324432 1.765413 0.134384
v 0.636396 1.662983 0.263604
v 0.923904 1.496645 0.382694
v 1.175906 1.272792 0.487077
v 1.382720 1.000026 0.572742
v 1.536396 0.688830 0.636396
v 1.631029 0.351163 0.675595
v 1.662983 0.000000 0.688830
v 0.248309 1.765413 0.248309
v 0.487076 1.662983 0.487077
v 0.707125 1.496645 0.707126
v 0.900000 1.272792 0.900000
v 1.058288 1.000026 1.058288
v 1.175906 0.688830 1.175907
v 1.248335 0.351163 1.248336
v 1.272792 0.000000 1.272792
v 0.134384 1.765413 0.324432
v 0.263604 1.662983 0.636396
v 0.382693 1.496645 0.923904
v 0.487076 1.272792 1.175907
v 0.572741 1.000026 1.382720
v 0.636396 0.688830 1.536396
v 0.675594 0.351163 1.631029
v 0.688829 0.000000 1.662983
v -0.000000 1.765413 0.351163
v -0.000000 1.662983 0.688830
v -0.000000 1.496645 1.000026
v -0.000000 1.272792 1.272792
v -0.000001 1.000026 1.496645
v -0.000001 0.688830 1.662983
v -0.000000 0.351163 1.765413
v -0.000001 0.000000 1.800000
v -0.134384 1.765413 0.324432
v -0.263604 1.662983 0.636396
v -0.382694 1.496645 0.923904
v -0.487077 1.272792 1.175906
v -0.572742 1.000026 1.382720
v -0.636397 0.688830 1.536396
v -0.675595 0.351163 1.631029
v -0.688831 0.000000 1.662982
v -0.248309 1.765413 0.248309
v -0.487077 1.662983 0.487076
v -0.707126 1.496645 0.707125
v -0.900000 1.272792 0.900000
v -1.058288 1.000026 1.058287
v -1.175907 0.688830 1.175906
v -1.248336 0.351163 1.248335
v -1.272792 0.000000 1.272791
v -0.324432 1.765413 0.134384
v -0.636396 1.662983 0.263604
v -0.923904 1.496645 0.382693
v -1.175907 1.272792 0.487076
v -1.382720 1.000026 0.572741
v -1.536396 0.688830 0.636395
v -1.631029 0.351163 0.675594
v -1.662983 0.000000 0.688829
v 0.000000 1.800000 0.000000
v -0.351163 1.765413 -0.000000
v -0.688830 1.662983 -0.000000
v -1.000026 1.496645 -0.000000
v -1.272792 1.272792 -0.000001
v -1.496645 1.000026 -0.000001
v -1.662983 0.688830 -0.000001
v -1.765413 0.351163 -0.000001
v -1.799999 0.000000 -0.000001
v -0.324432 1.765413 -0.134384
v -0.636396 1.662983 -0.263604
v -0.923904 1.496645 -0.382694
v -1.175906 1.272792 -0.487077
v -1.382719 1.000026 -0.572742
v -1.536395 0.688830 -0.636397
v -1.631029 0.351163 -0.675595
v -1.662982 0.000000 -0.688831
v -0.248309 1.765413 -0.248309
v -0.487076 1.662983 -0.487077
v -0.707125 1.496645 -0.707126
v -0.899999 1.272792 -0.900000
v -1.058287 1.000026 -1.058288
v -1.175906 0.688830 -1.175907
v -1.248335 0.351163 -1.248336
v -1.272791 0.000000 -1.272792
v -0.134384 1.765413 -0.324432
v -0.263604 1.662983 -0.636396
v -0.382693 1.496645 -0.923904
v -0.487076 1.272792 -1.175907
v -0.572740 1.000026 -1.382720
v -0.636395 0.688830 -1.536396
v -0.675594 0.351163 -1.631029
v -0.688829 0.000000 -1.662983
v 0.000000 1.662983 -0.688830
v 0.000000 1.496645 -1.000026
v 0.000001 1.000026 -1.496645
v 0.000001 0.000000 -1.799999
vn -0.0000 0.9784 -0.2068
vn -0.0000 0.7011 -0.7131
vn -0.0000 0.3784 -0.9256
vn -0.0000 0.1928 -0.9812
vn 0.0791 0.9784 -0.1911
vn 0.1504 0.9195 -0.3631
vn 0.2158 0.8258 -0.5210
vn 0.2729 0.7011 -0.6588
vn 0.3196 0.5500 -0.7716
vn 0.3542 0.3784 -0.8552
vn 0.3755 0.1928 -0.9065
vn 0.3808 0.0980 -0.9194
vn 0.1462 0.9784 -0.1462
vn 0.2779 0.9195 -0.2779
vn 0.3987 0.8258 -0.3987
vn 0.5042 0.7011 -0.5042
vn 0.5905 0.5500 -0.5905
vn 0.6545 0.3784 -0.6545
vn 0.6938 0.1928 -0.6938
vn 0.7037 0.0980 -0.7037
vn 0.1911 0.9784 -0.0791
vn 0.3631 0.9195 -0.1504
vn 0.5210 0.8258 -0.2158
vn 0.6588 0.7011 -0.2729
vn 0.7716 0.5500 -0.3196
vn 0.8552 0.3784 -0.3542
vn 0.9065 0.1928 -0.3755
vn 0.9194 0.0980 -0.3808
vn 0.2068 0.9784 -0.0000
vn 0.3930 0.9195 -0.0000
vn 0.5639 0.8258 -0.0000
vn 0.7131 0.7011 -0.0000
vn 0.8352 0.5500 -0.0000
vn 0.9256 0.3784 -0.0000
vn 0.9812 0.1928 -0.0000
vn 0.9952 0.0980 -0.0000
vn 0.1911 0.9784 0.0791
vn 0.3631 0.9195 0.1504
vn 0.5210 0.8258 0.2158
vn 0.6588 0.7011 0.2729
vn 0.7716 0.5500 0.3196
vn 0.8552 0.3784 0.3542
vn 0.9065 0.1928 0.3755
vn 0.9194 0.0980 0.3808
vn 0.1462 0.9784 0.1462
vn 0.2779 0.9195 0.2779
vn 0.3987 0.8258 0.3987
vn 0.5042 0.7011 0.5042
vn 0.5905 0.5500 0.5905
vn 0.6545 0.3784 0.6545
vn 0.6938 0.1928 0.6938
vn 0.7037 0.0980 0.7037
vn 0.0791 0.9784 0.1911
vn 0.1504 0.9195 0.3631
vn 0.2158 0.8258 0.5210
vn 0.2729 0.7011 0.6588
vn 0.3196 0.5500 0.7716
vn 0.3542 0.3784 0.8552
vn 0.3755 0.1928 0.9065
vn 0.3808 0.0980 0.9194
vn -0.0000 0.9784 0.2068
vn -0.0000 0.9195 0.3930
vn -0.0000 0.8258 0.5639
vn -0.0000 0.7011 0.7131
vn -0.0000 0.5500 0.8352
vn -0.0000 0.3784 0.9256
vn -0.0000 0.1928 0.9812
vn -0.0000 0.0980 0.9952
vn -0.0791 0.9784 0.1911
vn -0.1504 0.9195 0.3631
vn -0.2158 0.8258 0.5210
vn -0.2729 0.7011 0.6588
vn -0.3196 0.5500 0.7716
vn -0.3542 0.3784 0.8552
vn -0.3755 0.1928 0.9065
vn -0.3808 0.0980 0.9194
vn -0.1462 0.9784 0.1462
vn -0.2779 0.9195 0.2779
vn -0.3987 0.8258 0.3987
vn -0.5042 0.7011 0.5042
vn -0.5905 0.5500 0.5905
vn -0.6545 0.3784 0.6545
vn -0.6938 0.1928 0.6938
vn -0.7037 0.0980 0.7037
vn -0.1911 0.9784 0.0791
vn -0.3631 0.9195 0.1504
vn -0.5210 0.8258 0.2158
vn -0.6588 0.7011 0.2729
vn -0.7716 0.5500 0.3196
vn -0.8552 0.3784 0.3542
vn -0.9065 0.1928 0.3755
vn -0.9194 0.0980 0.3808
vn -0.0000 1.0000 -0.0000
vn -0.2068 0.9784 -0.0000
vn -0.3930 0.9195 -0.0000
vn -0.5639 0.8258 -0.0000
vn -0.7131 0.7011 -0.0000
vn -0.8352 0.5500 -0.0000
vn -0.9256 0.3784 -0.0000
vn -0.9812 0.1928 -0.0000
vn -0.9952 0.0980 -0.0000
vn -0.1911 0.9784 -0.0791
vn -0.3631 0.9195 -0.1504
vn -0.5210 0.8258 -0.2158
vn -0.6588 0.7011 -0.2729
vn -0.7716 0.5500 -0.3196
vn -0.8552 0.3784 -0.3542
vn -0.9065 0.1928 -0.3755
vn -0.9194 0.0980 -0.3808
vn -0.1462 0.9784 -0.1462
vn -0.2779 0.9195 -0.2779
vn -0.3987 0.8258 -0.3987
vn -0.5042 0.7011 -0.5042
vn -0.5905 0.5500 -0.5905
vn -0.6545 0.3784 -0.6545
vn -0.6938 0.1928 -0.6938
vn -0.7037 0.0980 -0.7037
vn -0.0791 0.9784 -0.1911
vn -0.1504 0.9195 -0.3631
vn -0.2158 0.8258 -0.5210
vn -0.2729 0.7011 -0.6588
vn -0.3196 0.5500 -0.7716
vn -0.3542 0.3784 -0.8552
vn -0.3755 0.1928 -0.9065
vn -0.3808 0.0980 -0.9194
vn -0.0000 0.9195 -0.3930
vn -0.0000 0.8258 -0.5639
vn -0.0000 0.5500 -0.8352
vn -0.0000 0.0980 -0.9952
vt 0.750000 0.389649
vt 0.750000 0.511719
vt 0.687500 0.511719
vt 0.687500 0.389648
vt 0.750000 0.267578
vt 0.687500 0.267578
vt 0.750000 0.145508
vt 0.687500 0.145508
vt 0.750000 0.000000
vt 0.687500 0.000000
vt 0.750000 0.877930
vt 0.718750 1.000000
vt 0.687500 0.877930
vt 0.750000 0.755859
vt 0.687500 0.755859
vt 0.750000 0.633789
vt 0.687500 0.633789
vt 0.625000 0.633789
vt 0.625000 0.511719
vt 0.625000 0.389648
vt 0.625000 0.267578
vt 0.625000 0.145508
vt 0.625000 0.000000
vt 0.656250 1.000000
vt 0.625000 0.877930
vt 0.625000 0.755859
vt 0.562500 0.145508
vt 0.562500 0.000000
vt 0.593750 1.000000
vt 0.562500 0.877930
vt 0.562500 0.755859
vt 0.562500 0.633789
vt 0.562500 0.511719
vt 0.562500 0.389648
vt 0.562500 0.267578
vt 0.500000 0.511719
vt 0.500000 0.389648
vt 0.500000 0.267578
vt 0.500000 0.145508
vt 0.500000 0.000000
vt 0.531250 1.000000
vt 0.500000 0.877930
vt 0.500000 0.755859
vt 0.500000 0.633789
vt 0.468750 1.000000
vt 0.437500 0.877930
vt 0.437500 0.755859
vt 0.437500 0.633789
vt 0.437500 0.511719
vt 0.437500 0.389648
vt 0.437500 0.267578
vt 0.437500 0.145508
vt 0.437500 0.000000
vt 0.375000 0.511719
vt 0.375000 0.389648
vt 0.375000 0.267578
vt 0.375000 0.145508
vt 0.375000 0.000000
vt 0.406250 1.000000
vt 0.375000 0.877930
vt 0.375000 0.755859
vt 0.375000 0.633789
vt 0.312500 0.877930
vt 0.312500 0.755859
vt 0.312500 0.633789
vt 0.312500 0.511719
vt 0.312500 0.389648
vt 0.312500 0.267578
vt 0.312500 0.145508
vt 0.312500 0.000000
vt 0.343750 1.000000
vt 0.250000 0.389648
vt 0.250000 0.267578
vt 0.250000 0.145508
vt 0.250000 0.000000
vt 0.281250 1.000000
vt 0.250000 0.877930
vt 0.250000 0.755859
vt 0.250000 0.633789
vt 0.250000 0.511719
vt 0.187500 0.755859
vt 0.187500 0.633789
vt 0.187500 0.511719
vt 0.187500 0.389648
vt 0.187500 0.267578
vt 0.187500 0.145508
vt 0.187500 0.000000
vt 0.218750 1.000000
vt 0.187500 0.877930
vt 0.125000 0.267578
vt 0.125000 0.145508
vt 0.125000 0.000000
vt 0.156250 1.000000
vt 0.125000 0.877930
vt 0.125000 0.755859
vt 0.125000 0.633789
vt 0.125000 0.511719
vt 0.125000 0.389648
vt 0.062500 0.755859
vt 0.062500 0.633789
vt 0.062500 0.511719
vt 0.062500 0.389648
vt 0.062500 0.267578
vt 0.062500 0.145508
vt 0.062500 0.000000
vt 0.093750 1.000000
vt 0.062500 0.877930
vt 0.000000 0.267578
vt 0.000000 0.145508
vt 0.000000 0.000000
vt 0.031250 1.000000
vt 0.000000 0.877930
vt 0.000000 0.755859
vt 0.000000 0.633789
vt 0.000000 0.511719
vt 0.000000 0.389649
vt 1.000000 0.511719
vt 1.000000 0.633789
vt 0.937500 0.633789
vt 0.937500 0.511719
vt 1.000000 0.389649
vt 0.937500 0.389648
vt 1.000000 0.267578
vt 0.937500 0.267578
vt 1.000000 0.145508
vt 0.937500 0.145508
vt 1.000000 0.000000
vt 0.937500 0.000000
vt 1.000000 0.877930
vt 0.968750 1.000000
vt 0.937500 0.877930
vt 1.000000 0.755859
vt 0.937500 0.755859
vt 0.875000 0.145508
vt 0.875000 0.000000
vt 0.906250 1.000000
vt 0.875000 0.877930
vt 0.875000 0.755859
vt 0.875000 0.633789
vt 0.875000 0.511719
vt 0.875000 0.389649
vt 0.875000 0.267578
vt 0.812500 0.633789
vt 0.812500 0.511719
vt 0.812500 0.389649
vt 0.812500 0.267578
vt 0.812500 0.145508
vt 0.812500 0.000000
vt 0.843750 1.000000
vt 0.812500 0.877930
vt 0.812500 0.755859
vt 0.781250 1.000000
s 1
f 128/1/128 2/2/2 8/3/8 9/4/9
f 3/5/3 128/1/128 9/4/9 10/6/10
f 4/7/4 3/5/3 10/6/10 11/8/11
f 129/9/129 4/7/4 11/8/11 12/10/12
f 1/11/1 93/12/93 5/13/5
f 126/14/126 1/11/1 5/13/5 6/15/6
f 127/16/127 126/14/126 6/15/6 7/17/7
f 2/2/2 127/16/127 7/17/7 8/3/8
f 8/3/8 7/17/7 15/18/15 16/19/16
f 9/4/9 8/3/8 16/19/16 17/20/17
f 10/6/10 9/4/9 17/20/17 18/21/18
f 11/8/11 10/6/10 18/21/18 19/22/19
f 12/10/12 11/8/11 19/22/19 20/23/20
f 5/13/5 93/24/93 13/25/13
f 6/15/6 5/13/5 13/25/13 14/26/14
f 7/17/7 6/15/6 14/26/14 15/18/15
f 20/23/20 19/22/19 27/27/27 28/28/28
f 13/25/13 93/29/93 21/30/21
f 14/26/14 13/25/13 21/30/21 22/31/22
f 15/18/15 14/26/14 22/31/22 23/32/23
f 16/19/16 15/18/15 23/32/23 24/33/24
f 17/20/17 16/19/16 24/33/24 25/34/25
f 18/21/18 17/20/17 25/34/25 26/35/26
f 19/22/19 18/21/18 26/35/26 27/27/27
f 25/34/25 24/33/24 32/36/32 33/37/33
f 26/35/26 25/34/25 33/37/33 34/38/34
f 27/27/27 26/35/26 34/38/34 35/39/35
f 28/28/28 27/27/27 35/39/35 36/40/36
f 21/30/21 93/41/93 29/42/29
f 22/31/22 21/30/21 29/42/29 30/43/30
f 23/32/23 22/31/22 30/43/30 31/44/31
f 24/33/24 23/32/23 31/44/31 32/36/32
f 29/42/29 93/45/93 37/46/37
f 30/43/30 29/42/29 37/46/37 38/47/38
f 31/44/31 30/43/30 38/47/38 39/48/39
f 32/36/32 31/44/31 39/48/39 40/49/40
f 33/37/33 32/36/32 40/49/40 41/50/41
f 34/38/34 33/37/33 41/50/41 42/51/42
f 35/39/35 34/38/34 42/51/42 43/52/43
f 36/40/36 35/39/35 43/52/43 44/53/44
f 41/50/41 40/49/40 48/54/48 49/55/49
f 42/51/42 41/50/41 49/55/49 50/56/50
f 43/52/43 42/51/42 50/56/50 51/57/51
f 44/53/44 43/52/43 51/57/51 52/58/52
f 37/46/37 93/59/93 45/60/45
f 38/47/38 37/46/37 45/60/45 46/61/46
f 39/48/39 38/47/38 46/61/46 47/62/47
f 40/49/40 39/48/39 47/62/47 48/54/48
f 46/61/46 45/60/45 53/63/53 54/64/54
f 47/62/47 46/61/46 54/64/54 55/65/55
f 48/54/48 47/62/47 55/65/55 56/66/56
f 49/55/49 48/54/48 56/66/56 57/67/57
f 50/56/50 49/55/49 57/67/57 58/68/58
f 51/57/51 50/56/50 58/68/58 59/69/59
f 52/58/52 51/57/51 59/69/59 60/70/60
f 45/60/45 93/71/93 53/63/53
f 58/68/58 57/67/57 65/72/65 66/73/66
f 59/69/59 58/68/58 66/73/66 67/74/67
f 60/70/60 59/69/59 67/74/67 68/75/68
f 53/63/53 93/76/93 61/77/61
f 54/64/54 53/63/53 61/77/61 62/78/62
f 55/65/55 54/64/54 62/78/62 63/79/63
f 56/66/56 55/65/55 63/79/63 64/80/64
f 57/67/57 56/66/56 64/80/64 65/72/65
f 63/79/63 62/78/62 70/81/70 71/82/71
f 64/80/64 63/79/63 71/82/71 72/83/72
f 65/72/65 64/80/64 72/83/72 73/84/73
f 66/73/66 65/72/65 73/84/73 74/85/74
f 67/74/67 66/73/66 74/85/74 75/86/75
f 68/75/68 67/74/67 75/86/75 76/87/76
f 61/77/61 93/88/93 69/89/69
f 62/78/62 61/77/61 69/89/69 70/81/70
f 75/86/75 74/85/74 82/90/82 83/91/83
f 76/87/76 75/86/75 83/91/83 84/92/84
f 69/89/69 93/93/93 77/94/77
f 70/81/70 69/89/69 77/94/77 78/95/78
f 71/82/71 70/81/70 78/95/78 79/96/79
f 72/83/72 71/82/71 79/96/79 80/97/80
f 73/84/73 72/83/72 80/97/80 81/98/81
f 74/85/74 73/84/73 81/98/81 82/90/82
f 79/96/79 78/95/78 86/99/86 87/100/87
f 80/97/80 79/96/79 87/100/87 88/101/88
f 81/98/81 80/97/80 88/101/88 89/102/89
f 82/90/82 81/98/81 89/102/89 90/103/90
f 83/91/83 82/90/82 90/103/90 91/104/91
f 84/92/84 83/91/83 91/104/91 92/105/92
f 77/94/77 93/106/93 85/107/85
f 78/95/78 77/94/77 85/107/85 86/99/86
f 91/104/91 90/103/90 99/108/99 100/109/100
f 92/105/92 91/104/91 100/109/100 101/110/101
f 85/107/85 93/111/93 94/112/94
f 86/99/86 85/107/85 94/112/94 95/113/95
f 87/100/87 86/99/86 95/113/95 96/114/96
f 88/101/88 87/100/87 96/114/96 97/115/97
f 89/102/89 88/101/88 97/115/97 98/116/98
f 90/103/90 89/102/89 98/116/98 99/108/99
f 97/117/97 96/118/96 104/119/104 105/120/105
f 98/121/98 97/117/97 105/120/105 106/122/106
f 99/123/99 98/121/98 106/122/106 107/124/107
f 100/125/100 99/123/99 107/124/107 108/126/108
f 101/127/101 100/125/100 108/126/108 109/128/109
f 94/129/94 93/130/93 102/131/102
f 95/132/95 94/129/94 102/131/102 103/133/103
f 96/118/96 95/132/95 103/133/103 104/119/104
f 109/128/109 108/126/108 116/134/116 117/135/117
f 102/131/102 93/136/93 110/137/110
f 103/133/103 102/131/102 110/137/110 111/138/111
f 104/119/104 103/133/103 111/138/111 112/139/112
f 105/120/105 104/119/104 112/139/112 113/140/113
f 106/122/106 105/120/105 113/140/113 114/141/114
f 107/124/107 106/122/106 114/141/114 115/142/115
f 108/126/108 107/124/107 115/142/115 116/134/116
f 113/140/113 112/139/112 120/143/120 121/144/121
f 114/141/114 113/140/113 121/144/121 122/145/122
f 115/142/115 114/141/114 122/145/122 123/146/123
f 116/134/116 115/142/115 123/146/123 124/147/124
f 117/135/117 116/134/116 124/147/124 125/148/125
f 110/137/110 93/149/93 118/150/118
f 111/138/111 110/137/110 118/150/118 119/151/119
f 112/139/112 111/138/111 119/151/119 120/143/120
f 125/148/125 124/147/124 4/7/4 129/9/129
f 118/150/118 93/152/93 1/11/1
f 119/151/119 118/150/118 1/11/1 126/14/126
f 120/143/120 119/151/119 126/14/126 127/16/127
f 121/144/121 120/143/120 127/16/127 2/2/2
f 122/145/122 121/144/121 2/2/2 128/1/128
f 123/146/123 122/145/122 128/1/128 3/5/3
f 124/147/124 123/146/123 3/5/3 4/7/4
