# Blender 4.2.0
# www.blender.org
mtllib ring.mtl
o Sphere
v 0.000000 0.221692 -1.114520
v 0.000000 0.000000 -1.136355
v 0.000000 -0.221692 -1.114520
v 0.217432 0.221692 -1.093105
v 0.221692 0.000000 -1.114520
v 0.217432 -0.221692 -1.093105
v 0.426508 0.221692 -1.029682
v 0.434864 0.000000 -1.049855
v 0.426508 -0.221692 -1.029682
v 0.619194 0.221692 -0.926689
v 0.631325 0.000000 -0.944844
v 0.619194 -0.221692 -0.926689
v 0.788085 0.221692 -0.788085
v 0.803524 0.000000 -0.803524
v 0.788085 -0.221692 -0.788085
v 0.926689 0.221692 -0.619194
v 0.944844 0.000000 -0.631325
v 0.926689 -0.221692 -0.619194
v 1.029682 0.221692 -0.426508
v 1.049855 0.000000 -0.434864
v 1.029682 -0.221692 -0.426508
v 1.093105 0.221692 -0.217432
v 1.114520 0.000000 -0.221692
v 1.093105 -0.221692 -0.217432
v 1.114520 0.221692 0.000000
v 1.136354 0.000000 0.000000
v 1.114520 -0.221692 0.000000
v 1.093104 0.221692 0.217432
v 1.114519 0.000000 0.221692
v 1.093104 -0.221692 0.217432
v 1.029682 0.221692 0.426508
v 1.049854 0.000000 0.434864
v 1.029682 -0.221692 0.426508
v 0.926689 0.221692 0.619194
v 0.944844 0.000000 0.631325
v 0.926689 -0.221692 0.619194
v 0.788084 0.221692 0.788085
v 0.803523 0.000000 0.803524
v 0.788084 -0.221692 0.788085
v 0.619194 0.221692 0.926689
v 0.631324 0.000000 0.944844
v 0.619194 -0.221692 0.926689
v 0.426508 0.221692 1.029682
v 0.434864 0.000000 1.049854
v 0.426508 -0.221692 1.029682
v 0.217432 0.221692 1.093104
v 0.221691 0.000000 1.114519
v 0.217432 -0.221692 1.093104
v -0.000000 0.221692 1.114520
v -0.000000 0.000000 1.136354
v -0.000000 -0.221692 1.114520
v -0.217432 0.221692 1.093104
v -0.221692 0.000000 1.114519
v -0.217432 -0.221692 1.093104
v -0.426508 0.221692 1.029682
v -0.434864 0.000000 1.049854
v -0.426508 -0.221692 1.029682
v -0.619194 0.221692 0.926689
v -0.631325 0.000000 0.944843
v -0.619194 -0.221692 0.926689
v -0.788084 0.221692 0.788084
v -0.803524 0.000000 0.803523
v -0.788084 -0.221692 0.788084
v -0.926689 0.221692 0.619194
v -0.944844 0.000000 0.631324
v -0.926689 -0.221692 0.619194
v -1.029682 0.221692 0.426508
v -1.049854 0.000000 0.434863
v -1.029682 -0.221692 0.426508
v -1.093104 0.221692 0.217432
v -1.114519 0.000000 0.221691
v -1.093104 -0.221692 0.217432
v -1.114519 0.221692 -0.000000
v -1.136354 0.000000 -0.000001
v -1.114519 -0.221692 -0.000000
v -1.093104 0.221692 -0.217432
v -1.114519 0.000000 -0.221692
v -1.093104 -0.221692 -0.217432
v -1.029681 0.221692 -0.426508
v -1.049854 0.000000 -0.434864
v -1.029681 -0.221692 -0.426508
v -0.926689 0.221692 -0.619194
v -0.944843 0.000000 -0.631325
v -0.926689 -0.221692 -0.619194
v -0.788084 0.221692 -0.788084
v -0.803523 0.000000 -0.803524
v -0.788084 -0.221692 -0.788084
v -0.619193 0.221692 -0.926689
v -0.631324 0.000000 -0.944844
v -0.619193 -0.221692 -0.926689
v -0.426508 0.221692 -1.029682
v -0.434863 0.000000 -1.049854
v -0.426508 -0.221692 -1.029682
v -0.217432 0.221692 -1.093104
v -0.221691 0.000000 -1.114519
v -0.217432 -0.221692 -1.093104
vn 0.0975 0.0975 -0.9904
vn 0.0975 -0.0975 -0.9904
vn 0.2889 0.0975 -0.9524
vn 0.2889 -0.0975 -0.9524
vn 0.4691 0.0975 -0.8777
vn 0.4691 -0.0975 -0.8777
vn 0.6314 0.0975 -0.7693
vn 0.6314 -0.0975 -0.7693
vn 0.7693 0.0975 -0.6314
vn 0.7693 -0.0975 -0.6314
vn 0.8777 0.0975 -0.4691
vn 0.8777 -0.0975 -0.4691
vn 0.9524 0.0975 -0.2889
vn 0.9524 -0.0975 -0.2889
vn 0.9904 0.0975 -0.0975
vn 0.9904 -0.0975 -0.0975
vn 0.9904 -0.0975 0.0975
vn 0.9904 0.0975 0.0975
vn 0.9524 0.0975 0.2889
vn 0.9524 -0.0975 0.2889
vn 0.8777 -0.0975 0.4691
vn 0.8777 0.0975 0.4691
vn 0.7693 0.0975 0.6314
vn 0.7693 -0.0975 0.6314
vn 0.6314 0.0975 0.7693
vn 0.6314 -0.0975 0.7693
vn 0.4691 0.0975 0.8777
vn 0.4691 -0.0975 0.8777
vn 0.2889 0.0975 0.9524
vn 0.2889 -0.0975 0.9524
vn 0.0975 0.0975 0.9904
vn 0.0975 -0.0975 0.9904
vn -0.0976 0.0975 0.9904
vn -0.0976 -0.0975 0.9904
vn -0.2889 0.0975 0.9524
vn -0.2889 -0.0975 0.9524
vn -0.4691 0.0975 0.8777
vn -0.4691 -0.0975 0.8777
vn -0.6314 0.0975 0.7693
vn -0.6314 -0.0975 0.7693
vn -0.7693 0.0975 0.6314
vn -0.7693 -0.0975 0.6314
vn -0.8777 -0.0975 0.4691
vn -0.8777 0.0975 0.4691
vn -0.9524 0.0975 0.2889
vn -0.9524 -0.0975 0.2889
vn -0.9904 -0.0975 0.0975
vn -0.9904 0.0975 0.0975
vn -0.9904 0.0975 -0.0976
vn -0.9904 -0.0975 -0.0976
vn -0.9524 0.0975 -0.2889
vn -0.9524 -0.0975 -0.2889
vn -0.8777 0.0975 -0.4691
vn -0.8777 -0.0975 -0.4691
vn -0.7693 0.0975 -0.6314
vn -0.7693 -0.0975 -0.6314
vn -0.6314 0.0975 -0.7693
vn -0.6314 -0.0975 -0.7693
vn -0.4691 0.0975 -0.8777
vn -0.4691 -0.0975 -0.8777
vn -0.2889 0.0975 -0.9524
vn -0.2889 -0.0975 -0.9524
vn -0.0976 0.0975 -0.9904
vn -0.0976 -0.0975 -0.9904
vt 0.749741 0.500000
vt 0.749741 1.000000
vt 0.718524 1.000000
vt 0.718524 0.500000
vt 0.749741 0.000000
vt 0.718524 0.000000
vt 0.687306 1.000000
vt 0.687306 0.500000
vt 0.687306 0.000000
vt 0.656088 1.000000
vt 0.656088 0.500000
vt 0.656088 0.000000
vt 0.624871 1.000000
vt 0.624871 0.500000
vt 0.624871 0.000000
vt 0.593653 1.000000
vt 0.593653 0.500000
vt 0.593653 0.000000
vt 0.562435 1.000000
vt 0.562435 0.500000
vt 0.562435 0.000000
vt 0.531218 1.000000
vt 0.531218 0.500000
vt 0.531218 0.000000
vt 0.500000 1.000000
vt 0.500000 0.500000
vt 0.500000 0.000000
vt 0.468782 0.500000
vt 0.468782 0.000000
vt 0.468782 1.000000
vt 0.437565 1.000000
vt 0.437565 0.500000
vt 0.437565 0.000000
vt 0.406347 0.500000
vt 0.406347 0.000000
vt 0.406347 1.000000
vt 0.375129 1.000000
vt 0.375129 0.500000
vt 0.375129 0.000000
vt 0.343912 1.000000
vt 0.343912 0.500000
vt 0.343912 0.000000
vt 0.312694 1.000000
vt 0.312694 0.500000
vt 0.312694 0.000000
vt 0.281476 1.000000
vt 0.281476 0.500000
vt 0.281476 0.000000
vt 0.250259 1.000000
vt 0.250259 0.500000
vt 0.250259 0.000000
vt 0.219041 1.000000
vt 0.219041 0.500000
vt 0.219041 0.000000
vt 0.187823 1.000000
vt 0.187823 0.500000
vt 0.187823 0.000000
vt 0.156606 1.000000
vt 0.156606 0.500000
vt 0.156606 0.000000
vt 0.125388 1.000000
vt 0.125388 0.500000
vt 0.125388 0.000000
vt 0.094170 1.000000
vt 0.094170 0.500000
vt 0.094170 0.000000
vt 0.062953 0.500000
vt 0.062953 0.000000
vt 0.062953 1.000000
vt 0.031735 1.000000
vt 0.031735 0.500000
vt 0.031735 0.000000
vt 0.000517 0.500000
vt 0.000517 0.000000
vt 0.000517 1.000000
vt 0.999483 0.500000
vt 0.999483 1.000000
vt 0.968265 1.000000
vt 0.968265 0.500000
vt 0.999483 0.000000
vt 0.968265 0.000000
vt 0.937047 1.000000
vt 0.937047 0.500000
vt 0.937047 0.000000
vt 0.905830 1.000000
vt 0.905830 0.500000
vt 0.905830 0.000000
vt 0.874612 1.000000
vt 0.874612 0.500000
vt 0.874612 0.000000
vt 0.843394 1.000000
vt 0.843394 0.500000
vt 0.843394 0.000000
vt 0.812177 1.000000
vt 0.812177 0.500000
vt 0.812177 0.000000
vt 0.780959 1.000000
vt 0.780959 0.500000
vt 0.780959 0.000000
s 0
f 2/1/1 1/2/1 4/3/1 5/4/1
f 3/5/2 2/1/2 5/4/2 6/6/2
f 5/4/3 4/3/3 7/7/3 8/8/3
f 6/6/4 5/4/4 8/8/4 9/9/4
f 8/8/5 7/7/5 10/10/5 11/11/5
f 9/9/6 8/8/6 11/11/6 12/12/6
f 11/11/7 10/10/7 13/13/7 14/14/7
f 12/12/8 11/11/8 14/14/8 15/15/8
f 14/14/9 13/13/9 16/16/9 17/17/9
f 15/15/10 14/14/10 17/17/10 18/18/10
f 17/17/11 16/16/11 19/19/11 20/20/11
f 18/18/12 17/17/12 20/20/12 21/21/12
f 20/20/13 19/19/13 22/22/13 23/23/13
f 21/21/14 20/20/14 23/23/14 24/24/14
f 23/23/15 22/22/15 25/25/15 26/26/15
f 24/24/16 23/23/16 26/26/16 27/27/16
f 27/27/17 26/26/17 29/28/17 30/29/17
f 26/26/18 25/25/18 28/30/18 29/28/18
f 29/28/19 28/30/19 31/31/19 32/32/19
f 30/29/20 29/28/20 32/32/20 33/33/20
f 33/33/21 32/32/21 35/34/21 36/35/21
f 32/32/22 31/31/22 34/36/22 35/34/22
f 35/34/23 34/36/23 37/37/23 38/38/23
f 36/35/24 35/34/24 38/38/24 39/39/24
f 38/38/25 37/37/25 40/40/25 41/41/25
f 39/39/26 38/38/26 41/41/26 42/42/26
f 41/41/27 40/40/27 43/43/27 44/44/27
f 42/42/28 41/41/28 44/44/28 45/45/28
f 44/44/29 43/43/29 46/46/29 47/47/29
f 45/45/30 44/44/30 47/47/30 48/48/30
f 47/47/31 46/46/31 49/49/31 50/50/31
f 48/48/32 47/47/32 50/50/32 51/51/32
f 50/50/33 49/49/33 52/52/33 53/53/33
f 51/51/34 50/50/34 53/53/34 54/54/34
f 53/53/35 52/52/35 55/55/35 56/56/35
f 54/54/36 53/53/36 56/56/36 57/57/36
f 56/56/37 55/55/37 58/58/37 59/59/37
f 57/57/38 56/56/38 59/59/38 60/60/38
f 59/59/39 58/58/39 61/61/39 62/62/39
f 60/60/40 59/59/40 62/62/40 63/63/40
f 62/62/41 61/61/41 64/64/41 65/65/41
f 63/63/42 62/62/42 65/65/42 66/66/42
f 66/66/43 65/65/43 68/67/43 69/68/43
f 65/65/44 64/64/44 67/69/44 68/67/44
f 68/67/45 67/69/45 70/70/45 71/71/45
f 69/68/46 68/67/46 71/71/46 72/72/46
f 72/72/47 71/71/47 74/73/47 75/74/47
f 71/71/48 70/70/48 73/75/48 74/73/48
f 74/76/49 73/77/49 76/78/49 77/79/49
f 75/80/50 74/76/50 77/79/50 78/81/50
f 77/79/51 76/78/51 79/82/51 80/83/51
f 78/81/52 77/79/52 80/83/52 81/84/52
f 80/83/53 79/82/53 82/85/53 83/86/53
f 81/84/54 80/83/54 83/86/54 84/87/54
f 83/86/55 82/85/55 85/88/55 86/89/55
f 84/87/56 83/86/56 86/89/56 87/90/56
f 86/89/57 85/88/57 88/91/57 89/92/57
f 87/90/58 86/89/58 89/92/58 90/93/58
f 89/92/59 88/91/59 91/94/59 92/95/59
f 90/93/60 89/92/60 92/95/60 93/96/60
f 92/95/61 91/94/61 94/97/61 95/98/61
f 93/96/62 92/95/62 95/98/62 96/99/62
f 95/98/63 94/97/63 1/2/63 2/1/63
f 96/99/64 95/98/64 2/1/64 3/5/64
